<svg xmlns="http://www.w3.org/2000/svg" width="40" height="40" viewBox="0 0 40 40"><defs><style>.a{fill:#d47f24;fill-rule:evenodd;}</style></defs><path class="a" d="M2.5,10V35A2.5,2.5,0,0,0,5,37.5H35A2.5,2.5,0,0,0,37.5,35V10ZM5,2.5a5,5,0,0,0-5,5V35a5,5,0,0,0,5,5H35a5,5,0,0,0,5-5V7.5a5,5,0,0,0-5-5Z"/><path class="a" d="M8.75,0A1.25,1.25,0,0,1,10,1.25V2.5a1.25,1.25,0,0,1-2.5,0V1.25A1.25,1.25,0,0,1,8.75,0Zm22.5,0A1.25,1.25,0,0,1,32.5,1.25V2.5a1.25,1.25,0,0,1-2.5,0V1.25A1.25,1.25,0,0,1,31.25,0Z"/></svg>