<svg xmlns="http://www.w3.org/2000/svg" width="40" height="30" viewBox="0 0 40 30"><defs><style>.a{fill-rule:evenodd;}</style></defs><g transform="translate(0 -4.5)"><path class="a" d="M37.5,29.5v-15A2.5,2.5,0,0,0,35,12H32.07a7.5,7.5,0,0,1-5.3-2.2L24.7,7.732A2.5,2.5,0,0,0,22.932,7H17.07a2.5,2.5,0,0,0-1.768.732L13.232,9.8A7.5,7.5,0,0,1,7.93,12H5a2.5,2.5,0,0,0-2.5,2.5v15A2.5,2.5,0,0,0,5,32H35A2.5,2.5,0,0,0,37.5,29.5ZM5,9.5a5,5,0,0,0-5,5v15a5,5,0,0,0,5,5H35a5,5,0,0,0,5-5v-15a5,5,0,0,0-5-5H32.07a5,5,0,0,1-3.534-1.466l-2.07-2.07A5,5,0,0,0,22.93,4.5H17.07a5,5,0,0,0-3.534,1.466l-2.07,2.07A5,5,0,0,1,7.93,9.5Z"/><path class="a" d="M18.875,26.25A6.25,6.25,0,1,0,12.625,20,6.25,6.25,0,0,0,18.875,26.25Zm0,2.5A8.75,8.75,0,1,0,10.125,20a8.75,8.75,0,0,0,8.75,8.75Z" transform="translate(1.125 0.75)"/><path d="M7,14.75A1.25,1.25,0,1,1,5.75,13.5,1.25,1.25,0,0,1,7,14.75Z" transform="translate(0.5 1)"/></g></svg>