<svg xmlns="http://www.w3.org/2000/svg" width="40.5" height="40.5" viewBox="0 0 40.5 40.5"><defs><style>.a{fill:#d47f24;stroke:#d47f24;stroke-width:0.5px;fill-rule:evenodd;}</style></defs><g transform="translate(0.25 0.25)"><path class="a" d="M35,2.5H5A2.5,2.5,0,0,0,2.5,5V35A2.5,2.5,0,0,0,5,37.5H35A2.5,2.5,0,0,0,37.5,35V5A2.5,2.5,0,0,0,35,2.5ZM5,0A5,5,0,0,0,0,5V35a5,5,0,0,0,5,5H35a5,5,0,0,0,5-5V5a5,5,0,0,0-5-5Z"/><path class="a" d="M26.405,11.238a1.875,1.875,0,1,1,2.678,2.626L19.1,26.339a1.876,1.876,0,0,1-2.7.05L9.79,19.774a1.876,1.876,0,1,1,2.65-2.65l5.236,5.232,8.682-11.062a.59.59,0,0,1,.05-.054Z" transform="translate(1.02 1.186)"/></g></svg>