<svg xmlns="http://www.w3.org/2000/svg" width="40.5" height="33" viewBox="0 0 40.5 33"><defs><style>.a{stroke:#000;stroke-width:0.5px;fill-rule:evenodd;}</style></defs><g transform="translate(0.25 -2)"><path class="a" d="M1.25,18A1.25,1.25,0,0,1,2.5,19.25V28A2.5,2.5,0,0,0,5,30.5H35A2.5,2.5,0,0,0,37.5,28V19.25a1.25,1.25,0,1,1,2.5,0V28a5,5,0,0,1-5,5H5a5,5,0,0,1-5-5V19.25A1.25,1.25,0,0,1,1.25,18Z" transform="translate(0 1.75)"/><path class="a" d="M11.287,16.912a1.25,1.25,0,0,1,1.768,0l5.732,5.732,5.732-5.732a1.25,1.25,0,1,1,1.768,1.768L19.671,25.3a1.25,1.25,0,0,1-1.77,0l-6.614-6.618a1.25,1.25,0,0,1,0-1.768Z" transform="translate(1.213 1.588)"/><path class="a" d="M18.125,2.25a1.25,1.25,0,0,1,1.25,1.25v20a1.25,1.25,0,0,1-2.5,0V3.5A1.25,1.25,0,0,1,18.125,2.25Z" transform="translate(1.875)"/></g></svg>