<svg xmlns="http://www.w3.org/2000/svg" width="57.916" height="46" viewBox="0 0 57.916 46"><defs><style>.a,.b{fill:#d47f24;}.b{fill-rule:evenodd;}</style></defs><g transform="translate(0 -3.703)"><path class="a" d="M41.22,37.254a49.469,49.469,0,0,0,9.559-11.72S39.92,5.625,21.821,5.625a25.44,25.44,0,0,0-10.1,2.128l2.786,2.791a21.516,21.516,0,0,1,7.312-1.3c7.674,0,14.041,4.228,18.707,8.893a47.542,47.542,0,0,1,6.009,7.4c-.211.315-.441.663-.706,1.043a47.753,47.753,0,0,1-5.3,6.353c-.6.6-1.219,1.187-1.871,1.758Z" transform="translate(7.137 1.17)"/><path class="a" d="M34.733,27.055a12.669,12.669,0,0,0-16.2-16.2l2.979,2.979a9.049,9.049,0,0,1,10.24,10.24l2.975,2.975Zm-10.653,4.7,2.975,2.975a12.669,12.669,0,0,1-16.2-16.2l2.979,2.979a9.049,9.049,0,0,0,10.24,10.24Z" transform="translate(6.16 3.906)"/><path class="a" d="M12.127,13.276q-.977.869-1.874,1.763a47.543,47.543,0,0,0-6.01,7.4l.706,1.043a47.753,47.753,0,0,0,5.3,6.353c4.665,4.665,11.036,8.893,18.707,8.893a21.443,21.443,0,0,0,7.312-1.3l2.786,2.794a25.443,25.443,0,0,1-10.1,2.128C10.859,42.344,0,22.435,0,22.435a49.3,49.3,0,0,1,9.559-11.72l2.563,2.566Z" transform="translate(0 4.269)"/><path class="b" d="M47.141,49.7,3.7,6.266,6.267,3.7,49.7,47.14Z" transform="translate(2.255)"/></g></svg>