<svg xmlns="http://www.w3.org/2000/svg" width="42.665" height="40" viewBox="0 0 42.665 40"><defs><style>.a{fill-rule:evenodd;}</style></defs><g transform="translate(0 0)"><path class="a" d="M21.333,7.328,19.421,5.363C14.933.749,6.7,2.342,3.733,8.141c-1.395,2.728-1.709,6.667.838,11.693,2.453,4.84,7.558,10.637,16.762,16.952C30.538,30.471,35.639,24.673,38.1,19.834c2.547-5.03,2.234-8.966.838-11.693-2.97-5.8-11.2-7.394-15.688-2.782Zm0,32.672C-19.554,12.981,8.744-8.107,20.864,3.048c.16.147.318.3.469.456q.226-.236.469-.454C33.92-8.112,62.22,12.979,21.333,40Z" transform="translate(0 0)"/></g></svg>