<svg xmlns="http://www.w3.org/2000/svg" width="41.5" height="42.351" viewBox="0 0 41.5 42.351"><defs><style>.a{fill:#d47f24;stroke:#d47f24;stroke-width:1.5px;}</style></defs><g transform="translate(0.75 0.75)"><path class="a" d="M20,40.851A20.239,20.239,0,0,1,0,20.426,20.239,20.239,0,0,1,20,0,20.239,20.239,0,0,1,40,20.426,20.239,20.239,0,0,1,20,40.851ZM20,1.7A18.553,18.553,0,0,0,1.667,20.426,18.553,18.553,0,0,0,20,39.149,18.553,18.553,0,0,0,38.333,20.426,18.553,18.553,0,0,0,20,1.7Zm0,0"/><path class="a" d="M170.5,261.106a2.554,2.554,0,1,1,2.5-2.553,2.53,2.53,0,0,1-2.5,2.553Zm0-3.4a.851.851,0,1,0,.833.851.844.844,0,0,0-.833-.851Zm0,0" transform="translate(-150.5 -228.766)"/><path class="a" d="M134.667,81.872a.844.844,0,0,1-.833-.851V78.928a3.386,3.386,0,0,1,2.333-3.248,5.089,5.089,0,1,0-6.5-4.871.834.834,0,1,1-1.667,0,6.668,6.668,0,1,1,8.667,6.495,1.692,1.692,0,0,0-1.167,1.624v2.094a.843.843,0,0,1-.833.851Zm0,0" transform="translate(-114.667 -57.192)"/></g></svg>