<svg xmlns="http://www.w3.org/2000/svg" width="40" height="30" viewBox="0 0 40 30"><defs><style>.a{fill-rule:evenodd;}</style></defs><g transform="translate(0 -4.5)"><path class="a" d="M36.25,7H3.75A1.25,1.25,0,0,0,2.5,8.25v22.5A1.25,1.25,0,0,0,3.75,32h32.5a1.25,1.25,0,0,0,1.25-1.25V8.25A1.25,1.25,0,0,0,36.25,7ZM3.75,4.5A3.75,3.75,0,0,0,0,8.25v22.5A3.75,3.75,0,0,0,3.75,34.5h32.5A3.75,3.75,0,0,0,40,30.75V8.25A3.75,3.75,0,0,0,36.25,4.5Z"/><path d="M26.714,17.2a1.39,1.39,0,0,1,1.463-.209l9.578,4.381V29.25H2.255V27l6.71-5.3a1.391,1.391,0,0,1,1.6-.14l6.745,3.989,9.408-8.348Z" transform="translate(0 3)"/><path class="a" d="M10.13,15.75a3.375,3.375,0,1,0-3.375-3.375A3.375,3.375,0,0,0,10.13,15.75Z" transform="translate(0.924 0.667)"/></g></svg>