<svg xmlns="http://www.w3.org/2000/svg" width="40" height="40" viewBox="0 0 40 40"><defs><style>.a{fill:#d47f24;}</style></defs><path class="a" d="M32.833,7.833a8.358,8.358,0,0,1,8.333,8.333V32.833a8.358,8.358,0,0,1-8.333,8.333H16.167a8.358,8.358,0,0,1-8.333-8.333V16.167a8.358,8.358,0,0,1,8.333-8.333H32.833m0-3.333H16.167A11.7,11.7,0,0,0,4.5,16.167V32.833A11.7,11.7,0,0,0,16.167,44.5H32.833A11.7,11.7,0,0,0,44.5,32.833V16.167A11.7,11.7,0,0,0,32.833,4.5Z" transform="translate(-4.5 -4.5)"/><path class="a" d="M27,15.75a3.375,3.375,0,1,1,3.375-3.375A3.367,3.367,0,0,1,27,15.75Z" transform="translate(3.292 -2.667)"/><path class="a" d="M20.75,14.417a6.333,6.333,0,1,1-6.333,6.333,6.339,6.339,0,0,1,6.333-6.333m0-3.167a9.5,9.5,0,1,0,9.5,9.5,9.5,9.5,0,0,0-9.5-9.5Z" transform="translate(-0.75 -0.75)"/></svg>