<svg xmlns="http://www.w3.org/2000/svg" width="31.429" height="40" viewBox="0 0 31.429 40"><g transform="translate(-6.25 -2.5)"><path d="M20,22.5a6.25,6.25,0,1,1,6.25-6.25A6.25,6.25,0,0,1,20,22.5Zm0-10a3.75,3.75,0,1,0,3.75,3.75A3.75,3.75,0,0,0,20,12.5Z" transform="translate(1.964 1.667)"/><path d="M21.964,42.5,9.913,28.287q-.251-.32-.5-.645A15.555,15.555,0,0,1,6.25,18.214a15.714,15.714,0,1,1,31.429,0,15.549,15.549,0,0,1-3.165,9.424v0s-.429.563-.493.639ZM11.7,25.922s.335.44.41.535l9.858,11.626,9.871-11.643c.063-.079.4-.521.4-.523a12.715,12.715,0,0,0,2.587-7.7,12.857,12.857,0,1,0-25.714,0,12.721,12.721,0,0,0,2.59,7.707Z" transform="translate(0)"/></g></svg>