<svg xmlns="http://www.w3.org/2000/svg" width="40" height="39.5" viewBox="0 0 40 39.5"><defs><style>.a{fill-rule:evenodd;}</style></defs><g transform="translate(0 -0.45)"><path class="a" d="M21.176,3.246a2.5,2.5,0,0,0-2.35,0l-15,8A2.5,2.5,0,0,0,2.5,13.45v2.044l14.31,8.662L20,22.242l3.19,1.916L37.5,15.5V13.45a2.5,2.5,0,0,0-1.326-2.2l-15-8ZM37.5,18.42,25.616,25.612,37.5,32.742V18.417ZM37.412,35.6,20,25.158,2.588,35.608A2.5,2.5,0,0,0,5,37.45H35a2.5,2.5,0,0,0,2.412-1.844ZM2.5,32.742l11.884-7.13L2.5,18.418V32.743Zm15.148-31.7a5,5,0,0,1,4.7,0l15,8A5,5,0,0,1,40,13.45v21.5a5,5,0,0,1-5,5H5a5,5,0,0,1-5-5V13.45A5,5,0,0,1,2.648,9.038l15-8Z" transform="translate(0 0)"/></g></svg>