<svg xmlns="http://www.w3.org/2000/svg" width="40.568" height="40.564" viewBox="0 0 40.568 40.564"><defs><style>.a{fill:#d47f24;stroke:#d47f24;stroke-width:0.5px;fill-rule:evenodd;}</style></defs><g transform="translate(-0.932 -1.002)"><path class="a" d="M10.383,4.57a1.7,1.7,0,0,0-2.535-.157L5.261,7a4.272,4.272,0,0,0-1.122,4.421,43.916,43.916,0,0,0,10.416,16.52A43.919,43.919,0,0,0,31.077,38.359,4.28,4.28,0,0,0,35.5,37.237l2.586-2.586a1.7,1.7,0,0,0-.16-2.535L32.159,27.63a1.7,1.7,0,0,0-1.451-.307L25.237,28.69a4.362,4.362,0,0,1-4.144-1.147L14.955,21.4a4.362,4.362,0,0,1-1.147-4.144l1.367-5.471a1.7,1.7,0,0,0-.307-1.451ZM5.961,2.53a4.362,4.362,0,0,1,6.527.408L16.971,8.7a4.354,4.354,0,0,1,.789,3.733l-1.367,5.475a1.7,1.7,0,0,0,.446,1.611l6.142,6.137a1.7,1.7,0,0,0,1.611.446l5.471-1.367a4.362,4.362,0,0,1,3.735.789l5.765,4.483a4.361,4.361,0,0,1,.408,6.527l-2.586,2.586a6.945,6.945,0,0,1-7.191,1.754,46.582,46.582,0,0,1-17.52-11.05A46.582,46.582,0,0,1,1.621,12.3,6.95,6.95,0,0,1,3.376,5.111L5.962,2.528Z"/></g></svg>