<svg xmlns="http://www.w3.org/2000/svg" width="31.724" height="40" viewBox="0 0 31.724 40"><defs><style>.a{fill-rule:evenodd;}</style></defs><g transform="translate(-4.5 -0.628)"><path class="a" d="M17.109,4.357A3.96,3.96,0,0,1,21.964.744l.664.168A3.5,3.5,0,0,1,25.2,3.368a23.839,23.839,0,0,1,.158,11.474q.562-.078,1.127-.13a16.293,16.293,0,0,1,6.4.534,5.286,5.286,0,0,1,3.053,3.239,4.828,4.828,0,0,1-.6,4.409,5.618,5.618,0,0,1,.351.924,8.4,8.4,0,0,1,0,4.356A5.281,5.281,0,0,1,35.29,29.2a4.13,4.13,0,0,1-.008,2.921,8.048,8.048,0,0,1-1.242,2.292,3.561,3.561,0,0,1,.193,1.183,4.742,4.742,0,0,1-.643,2.32,5.486,5.486,0,0,1-4.92,2.709V38.082a2.962,2.962,0,0,0,2.713-1.425,2.2,2.2,0,0,0,.308-1.058.672.672,0,0,0-.1-.433l-.9-.9.9-.9a5.628,5.628,0,0,0,1.285-2.046c.265-.794.11-1.122-.012-1.242l-.9-.9.9-.9a1.859,1.859,0,0,0,.391-.8,5.811,5.811,0,0,0,0-2.956,1.938,1.938,0,0,0-.391-.8l-.9-.9.9-.9a2.364,2.364,0,0,0,.68-2.6,2.8,2.8,0,0,0-1.453-1.659,13.851,13.851,0,0,0-5.368-.417,22.663,22.663,0,0,0-2.784.435l-.036.008-.008,0a1.272,1.272,0,0,1-1.514-1.636A21.219,21.219,0,0,0,22.743,4.03a.96.96,0,0,0-.733-.649l-.667-.165a1.412,1.412,0,0,0-1.7,1.317,30.761,30.761,0,0,1-1.227,7.252,16.274,16.274,0,0,1-3.149,5.03,14.12,14.12,0,0,1-6.65,4.346,1.929,1.929,0,0,0-1.577,1.654V33a1.492,1.492,0,0,0,1.407,1.4,13.428,13.428,0,0,1,6.338,2.208l.1.063a9.945,9.945,0,0,0,1.974,1,8.728,8.728,0,0,0,2.9.415h8.9v2.544h-8.9a11.188,11.188,0,0,1-3.729-.554,12.264,12.264,0,0,1-2.468-1.231l-.122-.077a10.912,10.912,0,0,0-5.262-1.836A4.038,4.038,0,0,1,4.5,32.993V22.816a4.448,4.448,0,0,1,3.452-4.109,11.621,11.621,0,0,0,5.424-3.587,13.925,13.925,0,0,0,2.644-4.17,28.42,28.42,0,0,0,1.089-6.589Z" transform="translate(0 0)"/></g></svg>