<svg xmlns="http://www.w3.org/2000/svg" width="40.5" height="32.117" viewBox="0 0 40.5 32.117"><defs><style>.a{fill:#d47f24;stroke:#d47f24;stroke-width:0.5px;fill-rule:evenodd;}</style></defs><g transform="translate(0.25 -3.133)"><path class="a" d="M1.25,20A1.25,1.25,0,0,1,2.5,21.25V30A2.5,2.5,0,0,0,5,32.5H35A2.5,2.5,0,0,0,37.5,30V21.25a1.25,1.25,0,0,1,2.5,0V30a5,5,0,0,1-5,5H5a5,5,0,0,1-5-5V21.25A1.25,1.25,0,0,1,1.25,20ZM12.5,12.135a1.25,1.25,0,0,0,1.767,0L20,6.4l5.732,5.732A1.25,1.25,0,1,0,27.5,10.365L20.885,3.75a1.25,1.25,0,0,0-1.77,0L12.5,10.365a1.25,1.25,0,0,0,0,1.77Z" transform="translate(0 0)"/><path class="a" d="M20,5a1.25,1.25,0,0,1,1.25,1.25v20a1.25,1.25,0,1,1-2.5,0v-20A1.25,1.25,0,0,1,20,5Z" transform="translate(0 0)"/></g></svg>