<svg xmlns="http://www.w3.org/2000/svg" width="58.182" height="40" viewBox="0 0 58.182 40"><defs><style>.a{fill:#d47f24;fill-rule:evenodd;}</style></defs><g transform="translate(0 -5.625)"><path class="a" d="M58.182,25.625s-10.909-20-29.091-20S0,25.625,0,25.625s10.909,20,29.091,20S58.182,25.625,58.182,25.625Zm-53.917,0a47.761,47.761,0,0,0,6.036,7.43c4.68,4.687,11.08,8.934,18.789,8.934S43.2,37.741,47.884,33.054a47.76,47.76,0,0,0,6.036-7.429A47.756,47.756,0,0,0,47.884,18.2C43.2,13.509,36.8,9.261,29.091,9.261S14.985,13.509,10.3,18.2a47.755,47.755,0,0,0-6.036,7.429Z"/><path class="a" d="M22.852,13.761a9.091,9.091,0,1,0,9.091,9.091,9.091,9.091,0,0,0-9.091-9.091ZM10.125,22.852A12.727,12.727,0,1,1,22.852,35.58,12.727,12.727,0,0,1,10.125,22.852Z" transform="translate(6.239 2.773)"/></g></svg>