<svg xmlns="http://www.w3.org/2000/svg" width="38.4" height="40" viewBox="0 0 38.4 40"><defs><style>.a,.b{fill:#d47f24;}.b{fill-rule:evenodd;}</style></defs><path class="a" d="M10.9,2.25h16V5.107h-16A3.043,3.043,0,0,0,7.7,7.964V36.536a3.043,3.043,0,0,0,3.2,2.857H36.5a3.043,3.043,0,0,0,3.2-2.857v-20h3.2v20c0,3.156-2.865,5.714-6.4,5.714H10.9c-3.535,0-6.4-2.558-6.4-5.714V7.964c0-3.156,2.865-5.714,6.4-5.714Z" transform="translate(-4.5 -2.25)"/><path class="a" d="M20.25,11.854V2.25L33.97,15.97h-9.6A4.116,4.116,0,0,1,20.25,11.854Z" transform="translate(4.43 -2.25)"/><path class="b" d="M11.25,31.821a1.633,1.633,0,0,1,1.414-1.786h5.657a1.633,1.633,0,0,1,1.414,1.786,1.633,1.633,0,0,1-1.414,1.786H12.664A1.633,1.633,0,0,1,11.25,31.821Zm0-7.143a1.633,1.633,0,0,1,1.414-1.786H26.807a1.633,1.633,0,0,1,1.414,1.786,1.633,1.633,0,0,1-1.414,1.786H12.664A1.633,1.633,0,0,1,11.25,24.679Zm0-7.143a1.633,1.633,0,0,1,1.414-1.786H26.807a1.633,1.633,0,0,1,1.414,1.786,1.633,1.633,0,0,1-1.414,1.786H12.664A1.633,1.633,0,0,1,11.25,17.536Z" transform="translate(-0.536 -0.988)"/></svg>