<svg id="Layer_1" data-name="Layer 1" xmlns="http://www.w3.org/2000/svg" viewBox="0 0 2000 1300" fill="none"><defs><style>.cls-1,.cls-2{fill:#982b20;}.cls-2{font-size:169.69px;font-family:Montserrat-Bold, Montserrat;font-weight:700;letter-spacing:0.05em;}.cls-3{letter-spacing:0.04em;}.cls-4{letter-spacing:0.04em;}.cls-5{letter-spacing:0.05em;}.cls-6{letter-spacing:0.03em;}</style></defs><path class="cls-1" d="M737.22,785.75c-8.1,2.38-16.25,4.65-24.7,5.71l-3.14.51-1.57.27-1.6.12q-3.19.23-6.38.57a57.39,57.39,0,0,1-6.44.29c-2.15,0-4.31.24-6.46.2a177.33,177.33,0,0,1-25.56-2.15q-3-.59-6.06-1.06l-.41-.08c-2-.49-4-1-6-1.4s-4.07-1.14-6.11-1.66L640,786.3l-.39-.12-2.79-1-3-1a26.45,26.45,0,0,1-3-1.07q-2.84-1.17-5.71-2.24l-.38-.16c-1.86-.86-3.71-1.73-5.59-2.54l-1.46-.63-1.4-.75-2.83-1.46a160.69,160.69,0,0,1-21.66-13.45,180.3,180.3,0,0,1-19.34-16.78A158.72,158.72,0,0,1,556,725.51c-2.55-3.35-4.69-7-7-10.48l-.18-.3c-1-1.81-2-3.6-3.08-5.38s-1.91-3.79-2.93-5.65a168.06,168.06,0,0,1-9.56-23.47,183.57,183.57,0,0,1-5.67-24.71,178.71,178.71,0,0,1-1.73-25.64,160.92,160.92,0,0,1,8.4-50.11c1.2-4,2.89-7.81,4.38-11.7,0-.11.09-.22.14-.33q1.32-2.79,2.55-5.62c.85-1.93,2-3.76,2.87-5.67a172.06,172.06,0,0,1,13.52-21.62,164.28,164.28,0,0,1,81.92-58.2,182.21,182.21,0,0,1,24.75-5.53c2.06-.23,4.1-.49,6.15-.79l.37,0,6.21-.47c2.12-.27,4.29-.2,6.45-.26a58,58,0,0,1,6.46,0q3.24.15,6.46.19h1.62l1.6.18,3.18.33,3.19.27a23.79,23.79,0,0,1,3.18.34c2.09.38,4.19.71,6.29,1,1,.18,2.12.22,3.14.49l3.09.73,6,1.28a3.9,3.9,0,0,1,.46.12c2,.6,3.89,1.17,5.85,1.71l2.8.75a4.51,4.51,0,0,1,.52.17l2.71,1c1.9.69,3.81,1.34,5.74,2a5.27,5.27,0,0,1,.51.19c1.85.83,3.7,1.64,5.58,2.4l2.7,1.08.48.22,2.59,1.33q2.73,1.37,5.5,2.66l.45.23c1.76,1,3.51,2.07,5.29,3.06l2.59,1.42a4.36,4.36,0,0,1,.41.24c.83.53,1.63,1.11,2.46,1.64,1.7,1.14,3.43,2.24,5.17,3.32a2.7,2.7,0,0,1,.39.27l4.94,3.68,2.4,1.72a3.9,3.9,0,0,1,.4.31l2.25,1.91c1.56,1.33,3.15,2.63,4.75,3.91a3,3,0,0,1,.38.33c1.49,1.42,3,2.85,4.47,4.24l2.19,2,.37.36,2,2.17c1.4,1.5,2.82,3,4.27,4.43a4.4,4.4,0,0,1,.35.39c1.29,1.59,2.59,3.17,3.93,4.72l1.93,2.22c.12.13.23.27.34.41l1.72,2.38.45.61a5.79,5.79,0,0,0,8,1.27L1050.61,376.4a5.81,5.81,0,0,0,1.32-8.21l-7-9.4-5.34-7-5.65-6.79c-3.79-4.5-7.6-9-11.45-13.45l-12.12-12.84-6.13-6.36-6.41-6.07c-4.29-4-8.59-8.06-12.94-12l-13.55-11.34c-2.28-1.87-4.53-3.76-6.84-5.59L957.42,272c-4.74-3.51-9.47-7-14.27-10.43l-14.81-9.68c-2.48-1.59-4.94-3.21-7.45-4.76l-7.67-4.42c-5.12-2.93-10.25-5.86-15.43-8.69l-15.86-7.88-8-3.85-8.15-3.49q-8.16-3.45-16.37-6.81l-16.71-5.94-8.39-2.89-8.51-2.5-17.07-4.81c-5.74-1.4-11.52-2.64-17.3-3.91l-8.66-1.85c-2.89-.64-5.82-1-8.73-1.51l-17.5-2.7c-2.91-.49-5.85-.71-8.78-1L729,184l-8.8-.79-4.4-.37-4.4-.17-17.6-.55c-5.87-.25-11.73,0-17.6.11s-11.73.25-17.6.76-11.74.86-17.6,1.42l-17.55,2.22q-21.23,3.12-42.13,8.18a5.8,5.8,0,0,0-4.42,5.31c-.09,1.67-.22,3.33-.39,5l2-.54,6.9-1.62,13.81-3.15c1.24-.23,2.34.07,2.46.68l2.86,14.38c.12.6-.75,1.26-1.94,1.49l-13.28,3L582.7,221c-2.2.56-4.38,1.2-6.57,1.8h0a5.89,5.89,0,0,0-4,4,110.54,110.54,0,0,1-114.73,77.72,5.79,5.79,0,0,0-5.92,7.81A147.13,147.13,0,0,1,263.73,502.33a5.78,5.78,0,0,0-7.53,3.79,451.43,451.43,0,0,0-17.74,121.12,448.33,448.33,0,0,0,20.69,139.39,454.1,454.1,0,0,0,26.63,65.65c2.71,5.24,5.31,10.55,8.2,15.69l8.83,15.35c6.22,10,12.53,20,19.49,29.5a445.87,445.87,0,0,0,45.44,54,466.59,466.59,0,0,0,53.32,46.25,448.18,448.18,0,0,0,60,37.35l7.89,4,4,2,4,1.85c5.37,2.46,10.75,4.9,16.16,7.27l16.49,6.52c2.75,1.11,5.53,2.09,8.34,3l8.4,2.85c2.8.94,5.6,1.9,8.42,2.78l8.52,2.46c5.7,1.58,11.35,3.34,17.13,4.6s11.51,2.68,17.29,3.94l17.43,3.14a462.88,462.88,0,0,0,70.3,5.89c5.87.06,11.74-.21,17.6-.36s11.73-.26,17.6-.88l17.59-1.61,4.4-.44,4.38-.63,8.75-1.31c23.38-3.33,46.41-9.08,69-16.08,11.19-3.8,22.43-7.52,33.29-12.2l8.19-3.4c2.74-1.13,5.46-2.28,8.11-3.58l16-7.7,4-1.95,3.89-2.11,7.75-4.28,7.72-4.33,3.85-2.18,3.75-2.35,14.93-9.48c2.51-1.56,4.91-3.26,7.31-5l7.19-5.14c36.78-26.27,69-58.48,96.38-94.41a5.81,5.81,0,0,0-1.21-8.19L823.28,730.29a5.78,5.78,0,0,0-7.95,1.06C795.24,756.69,767.64,776.12,737.22,785.75ZM984.48,327.56l10.25-10.49c.42-.44,1.51-.1,2.42.77,6.61,6.68,13.08,13.53,19.45,20.44l9.14,10.75,4.54,5.41c1.52,1.8,3,3.62,4.4,5.52.76,1,1,2.12.49,2.49l-11.59,9c-.48.37-1.47-.1-2.2-1.07-1.34-1.82-2.76-3.58-4.23-5.3l-4.36-5.2L1004,349.52c-6.13-6.64-12.35-13.23-18.71-19.66C984.42,329,984.05,328,984.48,327.56Zm-60.87-49.32,8.15-12.19c.34-.51,1.47-.36,2.52.33,4,2.52,7.75,5.34,11.55,8.12l11.35,8.41c7.44,5.76,14.58,11.91,21.79,17.95.95.82,1.35,1.9.94,2.35l-9.75,11c-.41.47-1.44.16-2.36-.63-6.94-5.81-13.8-11.72-20.95-17.26l-10.92-8.09c-3.65-2.67-7.27-5.39-11.1-7.81C923.82,279.7,923.27,278.75,923.61,278.24Zm-69-37.38,5.76-13.48c.24-.57,1.38-.63,2.54-.14A444.52,444.52,0,0,1,913.27,253c1.09.63,1.71,1.57,1.39,2.09l-7.57,12.56c-.32.52-1.43.46-2.48-.15a425.14,425.14,0,0,0-48.42-24.76C855.08,242.26,854.37,241.42,854.61,240.86ZM753.53,455.29,748.4,469a1.06,1.06,0,0,1-1.23.76c-3.49-1.11-6.84-2.63-10.43-3.43q-2.64-.74-5.27-1.53l-1.32-.41-1.34-.27-2.7-.56a1,1,0,0,1-.62-1.27L728.65,448a1,1,0,0,1,1.19-.87l3,.62,1.48.3,1.45.44,5.8,1.67c3.94.91,7.64,2.54,11.47,3.78A1,1,0,0,1,753.53,455.29ZM803,501.92a1,1,0,0,1-1.39.22c-2.92-2.27-5.66-4.77-8.58-7q-2.25-1.61-4.47-3.27a46.09,46.09,0,0,0-4.52-3.2,1,1,0,0,1-.13-1.4L792,475.05a1.08,1.08,0,0,1,1.44-.4,53.51,53.51,0,0,1,5,3.51l4.91,3.59c3.2,2.49,6.21,5.22,9.41,7.72a1.08,1.08,0,0,1,0,1.5Zm33.5,14.55-11.59,9a1,1,0,0,1-1.41,0,17.89,17.89,0,0,0-1.73-2.17l-1.81-2.1q-1.8-2.11-3.54-4.27l-7.66-8a1,1,0,0,1,.11-1.4l10.25-10.49a1.09,1.09,0,0,1,1.5-.13l8.4,8.82,3.9,4.68,2,2.31a21.67,21.67,0,0,1,1.9,2.37A1.1,1.1,0,0,1,836.46,516.47ZM783,202.51c.13-.59,1.24-.86,2.47-.59l6.91,1.55,3.45.79,3.41,1,13.64,3.85c9.13,2.44,18,5.79,26.9,8.9,1.19.42,2,1.23,1.76,1.81l-5.13,13.73c-.21.58-1.31.71-2.45.31-8.58-3-17.08-6.22-25.87-8.56l-13.11-3.7-3.28-.91-3.32-.76-6.64-1.49c-1.19-.26-2-1-1.91-1.56Zm1.49,266.39a1,1,0,0,1,.28,1.42l-7.58,12.55a1.08,1.08,0,0,1-1.36.53,174.91,174.91,0,0,0-19.62-10,1,1,0,0,1-.38-1.36l5.76-13.48a1.06,1.06,0,0,1,1.34-.65A190.92,190.92,0,0,1,784.44,468.9ZM702.5,192.4c0-.61,1-1.08,2.31-1l7,.25,3.51.14,3.52.3,14.06,1.28c9.38.72,18.69,2.31,28,3.76,1.24.2,2.16.85,2.06,1.46L760.5,213c-.1.6-1.16.93-2.35.74-9-1.39-17.92-2.93-26.94-3.61l-13.52-1.24-3.38-.29-3.38-.13-6.77-.23c-1.2,0-2.16-.57-2.14-1.18Zm-8.33,251.27a1.07,1.07,0,0,1,1-1.08l3.06.07,1.53,0,1.51.17,6.06.59c4.07.18,8,1,12,1.61a1,1,0,0,1,.77,1.23l-2.5,14.45a1,1,0,0,1-1.07,1c-3.64-.5-7.23-1.32-11-1.46-1.84-.16-3.68-.35-5.52-.55l-1.38-.16h-1.39l-2.8,0a1,1,0,0,1-.86-1.14ZM251,574.43c1.05-9.36,2.8-18.64,4.49-27.92.77-4.66,2-9.23,3-13.84s2.06-9.22,3.34-13.77c.33-1.22,1.09-2.07,1.68-1.91l14.16,3.81c.59.16.81,1.24.49,2.41-1.24,4.37-2.15,8.82-3.21,13.23s-2.13,8.83-2.87,13.31c-1.62,8.93-3.31,17.85-4.32,26.85-.15,1.2-.77,2.12-1.38,2l-14.55-1.81C251.24,576.76,250.88,575.68,251,574.43Zm-3.1,81c-.26-4.69-.32-9.37-.46-14.06s-.3-9.38-.13-14.06c.22-9.38.34-18.75,1.18-28.13.1-1.26.67-2.23,1.29-2.18l14.61,1.13c.62.05,1,1.07.95,2.27-.83,9-.93,18-1.14,27.06-.18,4.51.05,9,.12,13.53s.19,9,.45,13.53c.08,1.2-.35,2.21-1,2.25l-14.64.86C248.6,657.69,248,656.7,247.94,655.45Zm11.91,80.49-3.17-13.81c-1-4.61-1.76-9.27-2.62-13.91-1.79-9.27-2.88-18.63-4-28-.16-1.25.22-2.32.83-2.38l14.58-1.54c.61-.06,1.22.86,1.37,2.06,1.12,9,2.16,18,3.89,26.91.83,4.46,1.54,8.94,2.52,13.38l3.05,13.27c.28,1.18,0,2.26-.58,2.41l-14.23,3.54C260.86,738,260.14,737.17,259.85,735.94Zm28.56,78.68c-.56.25-1.44-.47-2-1.62a439.41,439.41,0,0,1-20-53c-.35-1.21-.16-2.34.43-2.51l14-4.21c.59-.17,1.34.63,1.67,1.79A420.42,420.42,0,0,0,301.84,806c.5,1.11.45,2.21-.11,2.47Zm38.33,69.09-4.07-5.77L318.83,872l-7.6-11.91-7.09-12.24-3.49-6.15-3.27-6.27c-.58-1.13-.6-2.26-.06-2.54l13-6.73c.55-.29,1.44.36,2,1.44l3.14,6,3.36,5.91,6.81,11.77L333,862.78l3.69,5.7,3.92,5.55c.69,1,.86,2.08.35,2.43l-12,8.47C328.46,885.28,327.47,884.74,326.74,883.71ZM391.84,936,381.62,946.5c-.42.44-1.51.09-2.41-.78-3.44-3.21-6.61-6.69-9.89-10.06s-6.55-6.76-9.61-10.33c-6.19-7.09-12.41-14.15-18.12-21.64-.78-1-1-2.09-.53-2.47l11.57-9c.48-.38,1.48.09,2.23,1,5.49,7.2,11.48,14,17.42,20.81,3,3.44,6.16,6.63,9.25,9.93s6.2,6.6,9.51,9.68C391.91,934.51,392.27,935.54,391.84,936Zm61,49.22-8.13,12.21c-.33.51-1.47.37-2.52-.31-3.89-2.65-7.71-5.4-11.55-8.13l-5.74-4.12c-1.9-1.39-3.73-2.87-5.59-4.3l-11.09-8.75c-3.61-3-7.15-6.11-10.71-9.19-.95-.82-1.39-1.86-1-2.32l9.73-11c.4-.45,1.47-.18,2.39.61,3.42,3,6.82,5.94,10.3,8.84l10.66,8.41c1.79,1.38,3.55,2.8,5.37,4.14l5.52,4c3.7,2.62,7.37,5.27,11.11,7.82C452.58,983.75,453.13,984.7,452.79,985.21ZM622.46,807.76,627.55,794a1,1,0,0,1,1.22-.72q2.61.83,5.21,1.73l2.59.91,2.65.72c1.77.48,3.52,1,5.28,1.53l5.36,1.21a1,1,0,0,1,.63,1.29L647.35,815a1,1,0,0,1-1.18.87l-5.9-1.34-5.8-1.68-2.91-.79-2.85-1L623,809.15A1.06,1.06,0,0,1,622.46,807.76ZM573,761.17a1,1,0,0,1,1.41-.25l4.19,3.64c1.47,1.12,2.93,2.25,4.37,3.41.73.56,1.43,1.18,2.18,1.72l2.27,1.58,4.51,3.22a1,1,0,0,1,.14,1.39l-8.12,12.21a1.09,1.09,0,0,1-1.45.41l-5-3.53L575,783.23c-.82-.59-1.59-1.26-2.39-1.88l-4.8-3.75-4.59-4a1,1,0,0,1,0-1.47Zm-22-23.45a1,1,0,0,1,1.43,0c2.18,3,4.73,5.69,7.11,8.52,1.15,1.45,2.56,2.67,3.8,4s2.47,2.77,3.87,4a1,1,0,0,1-.12,1.41L556.84,766.2a1.08,1.08,0,0,1-1.49.13c-1.53-1.34-2.83-2.92-4.25-4.36s-2.89-2.86-4.17-4.44c-2.62-3.1-5.39-6.07-7.8-9.35a1.05,1.05,0,0,1,.27-1.45Zm-20.12-35.41a1,1,0,0,1-.64,1.27l-13.33,6.12a1,1,0,0,1-1.41-.43,188,188,0,0,1-8.57-22.57,1.08,1.08,0,0,1,.81-1.26l14-4.2a1,1,0,0,1,1.3.53A171.39,171.39,0,0,0,530.85,702.31ZM505.41,677.1a1,1,0,0,1-1.29-.68l-1.38-5.88c-.46-2-.69-4-1.08-6-.86-3.94-1.19-8-1.76-12a1,1,0,0,1,1-1.08L515.46,650a1.07,1.07,0,0,1,1.23.77c.52,3.64.81,7.33,1.6,10.92.36,1.8.56,3.64,1,5.42s.86,3.56,1.25,5.35a1.05,1.05,0,0,1-.89,1.14ZM653,462.69,647.62,464l-2.69.59c-.88.22-1.75.52-2.63.76q-2.64.78-5.29,1.48c-1.75.54-3.46,1.2-5.2,1.77a1,1,0,0,1-1.21-.77l-4.84-13.85a1,1,0,0,1,.56-1.35c1.91-.62,3.79-1.34,5.72-1.94l5.81-1.63c1-.27,1.93-.59,2.9-.83l3-.65,5.88-1.39a1.09,1.09,0,0,1,1.18.93l2.86,14.38A1,1,0,0,1,653,462.69Zm32.43-19.18.18,14.66a1,1,0,0,1-.88,1.14c-1.87.06-3.73.1-5.6.11l-5.54.44c-3.72.12-7.34.84-11,1.2a1.06,1.06,0,0,1-1-1l-2.19-14.5a1,1,0,0,1,.8-1.21c4-.41,8-1.17,12.08-1.32l6.08-.48,6.13-.12A1,1,0,0,1,685.4,443.51ZM623.81,195.57c9.34-1.19,18.69-2.55,28.07-3.13,4.69-.35,9.38-.73,14.06-1l14.07-.39c1.25,0,2.27.45,2.28,1.07l.18,14.66c0,.61-1,1.13-2.17,1.16l-13.53.37c-4.51.26-9,.63-13.53,1-9,.55-18,1.87-27,3-1.2.16-2.25-.2-2.34-.81L621.72,197C621.62,196.37,622.56,195.74,623.81,195.57ZM594.6,466.91c3.43-2.16,7.15-3.76,10.69-5.7,1.8-.9,3.68-1.65,5.5-2.5s3.65-1.73,5.55-2.4a1.07,1.07,0,0,1,1.33.68l5.47,13.6a1,1,0,0,1-.41,1.35c-1.73.6-3.38,1.42-5.05,2.19s-3.37,1.45-5,2.26c-3.22,1.79-6.61,3.22-9.73,5.2a1,1,0,0,1-1.32-.52l-7.32-12.71A1.06,1.06,0,0,1,594.6,466.91Zm-28.69,20c1.48-1.39,3.13-2.58,4.73-3.84s3.14-2.56,4.79-3.74c3.36-2.27,6.53-4.81,10-6.87a1.06,1.06,0,0,1,1.43.41l7.89,12.36a1,1,0,0,1-.15,1.42c-3.19,1.86-6.07,4.19-9.14,6.25-1.51,1.07-2.89,2.3-4.36,3.42s-3,2.21-4.31,3.49a1,1,0,0,1-1.39-.26l-9.52-11.15A1.06,1.06,0,0,1,565.91,486.9Zm-24.61,25a195.34,195.34,0,0,1,16.62-17.78,1,1,0,0,1,1.47.13l10,10.7a1,1,0,0,1,.12,1.44,174.43,174.43,0,0,0-15.15,16.2,1,1,0,0,1-1.41,0l-11.4-9.22A1.09,1.09,0,0,1,541.3,511.85Zm-19.55,29c2.12-3.45,3.89-7.09,6.22-10.42,1.11-1.69,2.14-3.43,3.28-5.11l3.53-4.94a1,1,0,0,1,1.46-.15l11.81,8.69a1.05,1.05,0,0,1,.39,1.39q-1.59,2.28-3.23,4.51c-1,1.52-2,3.12-3,4.65-2.13,3-3.72,6.36-5.67,9.48a1,1,0,0,1-1.41.25l-12.9-7A1,1,0,0,1,521.75,540.84ZM508,572.8l1.92-5.73c.66-1.9,1.49-3.74,2.2-5.62,1.34-3.81,3.22-7.39,4.79-11.1a1,1,0,0,1,1.39-.41l13.21,6.37a1.06,1.06,0,0,1,.65,1.29c-1.42,3.39-3.15,6.64-4.35,10.1-.64,1.72-1.41,3.39-2,5.12s-1.14,3.48-1.74,5.21a1.06,1.06,0,0,1-1.36.49l-14-4.46A1,1,0,0,1,508,572.8Zm-5.73,22c.26-2,.89-3.93,1.3-5.9s.8-4,1.39-5.88a1.07,1.07,0,0,1,1.35-.64l14.16,3.81a1,1,0,0,1,.82,1.14c-.54,1.75-.81,3.57-1.26,5.34s-1,3.54-1.18,5.38c-.59,3.62-1.41,7.2-1.73,10.89a1,1,0,0,1-1.22.75l-14.55-1.81a1.06,1.06,0,0,1-1-1.11C500.73,602.71,501.61,598.77,502.26,594.78Zm-3.51,34.86c.17-4.08.08-8.19.54-12.22a1,1,0,0,1,1.18-.9l14.62,1.14a1,1,0,0,1,1,1c-.44,3.68-.33,7.43-.49,11.15-.15,1.86.06,3.73.07,5.59s0,3.74.14,5.59c0,.5-.41.92-1,1l-14.63.87a1.09,1.09,0,0,1-1.2-.92c-.12-2-.08-4.08-.16-6.12S498.6,631.68,498.75,629.64Zm23.12,392.85-5.73,13.5c-.24.56-1.37.6-2.52.09-8.62-3.86-17.27-7.65-25.61-12.07-4.18-2.18-8.43-4.24-12.52-6.58l-12.27-7c-1.09-.64-1.71-1.58-1.39-2.1l7.54-12.57c.32-.53,1.42-.46,2.47.14l11.8,6.78c3.93,2.25,8,4.22,12,6.32,8,4.26,16.34,7.89,24.62,11.61C521.4,1021.07,522.11,1021.92,521.87,1022.49Zm10.87-282.91L531,737.12l-1.62-2.57-3.3-5.09-3-5.27-1.53-2.62-1.36-2.7a1.06,1.06,0,0,1,.54-1.38l13-6.73a1,1,0,0,1,1.39.28l1.23,2.46,1.4,2.38,2.73,4.8c1,1.54,2,3.08,3,4.64l1.47,2.34,1.63,2.24a1,1,0,0,1-.38,1.37l-12,8.47A1.05,1.05,0,0,1,532.74,739.58Zm60.91,321c-.13.6-1.23.86-2.46.58-4.61-1.06-9.21-2.11-13.79-3.24l-13.65-3.84-6.8-2-6.72-2.23-13.42-4.57c-1.19-.42-2-1.28-1.75-1.85l5.1-13.75c.22-.58,1.3-.67,2.44-.27l12.9,4.4L562,1036l6.54,1.89,13.12,3.69c4.41,1.08,8.83,2.1,13.26,3.11,1.18.28,2,1,1.9,1.58Zm19.44-255.42c-3.64-1.73-7.4-3.22-10.93-5.19-1.78-1-3.64-1.75-5.37-2.79l-5.26-3a1,1,0,0,1-.28-1.43l7.55-12.57a1.06,1.06,0,0,1,1.35-.52q2.42,1.35,4.78,2.76c1.58,1,3.28,1.66,4.9,2.53,3.21,1.81,6.63,3.15,9.94,4.73a1.06,1.06,0,0,1,.37,1.4l-5.73,13.5A1,1,0,0,1,613.09,805.19Zm61,265.33c0,.62-1,1.09-2.3,1l-7-.23-7-.5-14.06-1.1c-4.68-.5-9.36-1.12-14-1.71s-9.35-1.18-14-2.06c-1.24-.21-2.16-.88-2.06-1.49l2.46-14.45c.11-.61,1.16-.93,2.35-.72,4.46.85,9,1.4,13.45,2s9,1.16,13.49,1.64L658.9,1054l6.76.48,6.77.23c1.2,0,2.16.55,2.14,1.17Zm7.74-251.29a1.07,1.07,0,0,1-1,1.09l-3.07-.06-3-.26-6.09-.43-6-.78c-2-.25-4-.43-6-.87a1.07,1.07,0,0,1-.77-1.27l2.46-14.46a1,1,0,0,1,1.06-.93c1.8.41,3.64.56,5.47.79l5.48.71q2.77.16,5.55.39l2.76.25,2.8,0a1,1,0,0,1,.87,1.13ZM979.6,938.45c1.69-1.5,3.28-3.1,4.87-4.72l4.76-4.83,9.47-9.73c6-6.79,12-13.51,17.76-20.52.75-.95,1.74-1.41,2.22-1l11.42,9.2c.48.38.24,1.5-.54,2.48-5.95,7.29-12.25,14.29-18.47,21.35l-9.84,10.11-5,5c-1.65,1.68-3.31,3.34-5.07,4.91-.92.86-2,1.18-2.43.73l-10-10.68C978.33,940.3,978.71,939.27,979.6,938.45Zm-61.38,48.36,5.72-3.67c1.9-1.23,3.71-2.59,5.56-3.89l11-7.93c3.71-2.6,7.22-5.46,10.74-8.3l10.53-8.57c.94-.76,2-1,2.42-.54L973.76,965c.4.46-.06,1.49-1,2.29l-11,8.91c-3.66,3-7.31,5.92-11.17,8.63l-11.46,8.24c-1.93,1.35-3.81,2.77-5.79,4l-6,3.82c-1.06.68-2.19.8-2.52.29L917,988.93C916.64,988.41,917.2,987.47,918.22,986.81ZM781.3,776l2.36-1.45c.79-.48,1.49-1.09,2.25-1.62q2.22-1.64,4.49-3.23a44.64,44.64,0,0,0,4.38-3.4q2.15-1.75,4.33-3.47a1.08,1.08,0,0,1,1.43.3l9.54,11.13a1,1,0,0,1-.05,1.45l-4.74,3.81a57.6,57.6,0,0,1-4.8,3.73l-4.94,3.55c-.83.58-1.61,1.24-2.47,1.77l-2.58,1.6a1.07,1.07,0,0,1-1.43-.42l-7.92-12.34A1,1,0,0,1,781.3,776Zm-58.31,24q2.68-.6,5.38-1.12c1.8-.35,3.52-1,5.3-1.46s3.53-1,5.3-1.42l5.18-1.84a1,1,0,0,1,1.21.77l4.87,13.83a1,1,0,0,1-.55,1.36l-5.7,2-5.83,1.57c-1.95.5-3.84,1.21-5.82,1.59l-5.92,1.24a1,1,0,0,1-1.17-.87l-2.9-14.38A1,1,0,0,1,723,799.94Zm-32.36,19.35-.21-14.66a1,1,0,0,1,.88-1.15c3.72-.17,7.47-.05,11.13-.58,1.84-.18,3.68-.33,5.53-.47s3.64-.57,5.46-.8a1,1,0,0,1,1.05,1l2.23,14.49a1.06,1.06,0,0,1-.8,1.25c-2,.26-4,.76-6,.88l-6.07.52c-4,.56-8.12.46-12.2.63A1,1,0,0,1,690.63,819.29ZM752.8,1067c-4.66.65-9.32,1.51-14,1.93l-14,1.32c-9.38,1-18.75,1.18-28.13,1.46-1.25,0-2.28-.44-2.28-1.06l-.22-14.66c0-.61,1-1.13,2.17-1.17,9-.27,18-.42,27.05-1.4l13.52-1.26c4.5-.41,9-1.24,13.46-1.86,1.2-.19,2.25.16,2.34.76l2.23,14.5C755,1066.18,754.05,1066.83,752.8,1067Zm12.43-263c-1.84.82-3.74,1.51-5.59,2.29a1,1,0,0,1-1.32-.65l-5.51-13.59a1,1,0,0,1,.4-1.37c1.69-.72,3.42-1.33,5.09-2.08s3.29-1.64,4.94-2.43c3.39-1.43,6.52-3.39,9.75-5.14a1,1,0,0,1,1.34.53l7.34,12.7a1,1,0,0,1-.3,1.43c-3.55,1.93-7,4-10.71,5.65ZM832,1047.63c-4.47,1.53-8.94,3.07-13.43,4.54L804.9,1056c-4.56,1.22-9.09,2.61-13.7,3.62l-13.84,3c-1.23.26-2.33,0-2.45-.62l-2.9-14.37c-.12-.6.75-1.29,1.93-1.55l13.31-2.89c4.43-1,8.78-2.32,13.16-3.49l13.11-3.71,12.91-4.37c1.15-.39,2.24-.24,2.44.33l4.88,13.83C834,1046.41,833.15,1047.22,832,1047.63Zm16.92-24.46c4.19-1.74,8.41-3.43,12.55-5.28l12.28-5.88c8.25-3.81,16.13-8.29,24-12.72,1.06-.59,2.16-.64,2.47-.11l7.34,12.7c.31.53-.33,1.46-1.43,2.07-8.23,4.61-16.44,9.26-25,13.23l-12.77,6.11c-4.3,1.93-8.69,3.68-13.05,5.5-1.17.48-2.3.41-2.53-.16L847.27,1025C847,1024.47,847.76,1023.63,848.88,1023.17Zm-26-283.23,11.42,9.2a1.08,1.08,0,0,1,.27,1.48c-2.56,3.14-5.36,6.09-7.94,9.22l-4.3,4.32-2.12,2.19a23.09,23.09,0,0,1-2.18,2.13,1.08,1.08,0,0,1-1.49-.16l-10-10.68a1,1,0,0,1-.09-1.4,20.25,20.25,0,0,0,2-1.94l1.92-2q1.94-2,3.93-3.93c2.34-2.87,4.9-5.55,7.24-8.41A1,1,0,0,1,822.86,739.94Z"/><text class="cls-2" transform="translate(888.83 688.87)">c<tspan class="cls-3" x="108.77" y="0">r</tspan><tspan class="cls-4" x="188.86" y="0">e</tspan><tspan class="cls-5" x="302.73" y="0">wbi</tspan><tspan class="cls-6" x="655.33" y="0">t</tspan><tspan x="734.75" y="0">e</tspan></text></svg>