<svg xmlns="http://www.w3.org/2000/svg" width="39.999" height="40" viewBox="0 0 39.999 40"><defs><style>.a{fill-rule:evenodd;}</style></defs><g transform="translate(-2.498 -2.5)"><path class="a" d="M31.907,3.337a2.857,2.857,0,0,1,4.04,0l5.714,5.714a2.857,2.857,0,0,1,0,4.04L15.948,38.8a2.857,2.857,0,0,1-1.114.691L6.262,42.352a2.857,2.857,0,0,1-3.617-3.614L5.5,30.168a2.857,2.857,0,0,1,.691-1.118L31.907,3.337Zm2.02,2.02,5.714,5.714L13.928,36.784,5.357,39.641,8.214,31.07Z" transform="translate(0 0)"/><path class="a" d="M35,17.512,27.486,9.994l2.129-2.129,7.518,7.518-2.126,2.129ZM7.5,28.477v1.5a1.5,1.5,0,0,0,1.5,1.5h1.5v1.5a1.5,1.5,0,0,0,1.5,1.5h1.5V36a1.5,1.5,0,0,0,1.5,1.5h1.5V32.988a1.5,1.5,0,0,0-1.5-1.5h-1.5v-1.5a1.5,1.5,0,0,0-1.5-1.5Z" transform="translate(0 0)"/></g></svg>